<svg xmlns="http://www.w3.org/2000/svg" viewBox="0 0 806.93 38.06"><defs><style>.cls-1{fill:#999;stroke:#4d4d4d;stroke-miterlimit:10;stroke-width:3px;}</style></defs><title>Artboard 1</title><g id="Layer_2" data-name="Layer 2"><rect class="cls-1" x="31.45" y="1.5" width="47.02" height="11.69"/><rect class="cls-1" x="31.45" y="24.87" width="47.02" height="11.69"/><rect class="cls-1" x="62.11" y="13.19" width="47.02" height="11.69"/><rect class="cls-1" x="1.5" y="13.19" width="47.02" height="11.69"/><rect class="cls-1" x="91.67" y="1.5" width="47.02" height="11.69"/><rect class="cls-1" x="91.67" y="24.87" width="47.02" height="11.69"/><rect class="cls-1" x="152.67" y="1.5" width="47.02" height="11.69"/><rect class="cls-1" x="152.67" y="24.87" width="47.02" height="11.69"/><rect class="cls-1" x="183.34" y="13.19" width="47.02" height="11.69"/><rect class="cls-1" x="122.73" y="13.19" width="47.02" height="11.69"/><rect class="cls-1" x="212.9" y="1.5" width="47.02" height="11.69"/><rect class="cls-1" x="212.9" y="24.87" width="47.02" height="11.69"/><rect class="cls-1" x="273.9" y="1.5" width="47.02" height="11.69"/><rect class="cls-1" x="273.9" y="24.87" width="47.02" height="11.69"/><rect class="cls-1" x="304.57" y="13.19" width="47.02" height="11.69"/><rect class="cls-1" x="243.95" y="13.19" width="47.02" height="11.69"/><rect class="cls-1" x="334.12" y="1.5" width="47.02" height="11.69"/><rect class="cls-1" x="334.12" y="24.87" width="47.02" height="11.69"/><rect class="cls-1" x="395.13" y="1.5" width="47.02" height="11.69"/><rect class="cls-1" x="395.13" y="24.87" width="47.02" height="11.69"/><rect class="cls-1" x="425.79" y="13.19" width="47.02" height="11.69"/><rect class="cls-1" x="365.18" y="13.19" width="47.02" height="11.69"/><rect class="cls-1" x="455.35" y="1.5" width="47.02" height="11.69"/><rect class="cls-1" x="455.35" y="24.87" width="47.02" height="11.69"/><rect class="cls-1" x="516.35" y="1.5" width="47.02" height="11.69"/><rect class="cls-1" x="516.35" y="24.87" width="47.02" height="11.69"/><rect class="cls-1" x="547.02" y="13.19" width="47.02" height="11.69"/><rect class="cls-1" x="486.4" y="13.19" width="47.02" height="11.69"/><rect class="cls-1" x="576.58" y="1.5" width="47.02" height="11.69"/><rect class="cls-1" x="576.58" y="24.87" width="47.02" height="11.69"/><rect class="cls-1" x="607.63" y="13.19" width="47.02" height="11.69"/><rect class="cls-1" x="637.19" y="1.5" width="47.02" height="11.69"/><rect class="cls-1" x="637.19" y="24.87" width="47.02" height="11.69"/><rect class="cls-1" x="698.19" y="1.5" width="47.02" height="11.69"/><rect class="cls-1" x="698.19" y="24.87" width="47.02" height="11.69"/><rect class="cls-1" x="728.86" y="13.19" width="47.02" height="11.69"/><rect class="cls-1" x="668.24" y="13.19" width="47.02" height="11.69"/><rect class="cls-1" x="758.42" y="1.5" width="47.02" height="11.69"/><rect class="cls-1" x="758.42" y="24.87" width="47.02" height="11.69"/></g></svg>